<?xml version="1.0" encoding="UTF-8"?>
<svg width="512" height="512" viewBox="0 0 24 24" xmlns="http://www.w3.org/2000/svg">
  <defs>
    <linearGradient id="gradient" x1="0%" y1="0%" x2="100%" y2="100%">
      <stop offset="30%" stop-color="#5C6BC0"/>
      <stop offset="90%" stop-color="#7986CB"/>
    </linearGradient>
    <style>
      .main-circle { fill: url(#gradient); opacity: 0.15; }
      .ai-text { fill: url(#gradient); }
      .border { fill: url(#gradient); }
      .dot { fill: url(#gradient); }
      @media (prefers-color-scheme: dark) {
        .main-circle { opacity: 0.25; }
      }
    </style>
  </defs>
  <g>
    <path class="main-circle" d="M12 2C6.48 2 2 6.48 2 12s4.48 10 10 10 10-4.48 10-10S17.52 2 12 2z"/>
    <path class="ai-text" d="M7 7h2v10H7V7zm4 0h2v10h-2V7zm4 0h2v10h-2V7z"/>
    <path class="border" d="M12 2C6.48 2 2 6.48 2 12s4.48 10 10 10 10-4.48 10-10S17.52 2 12 2zm0 18c-4.41 0-8-3.59-8-8s3.59-8 8-8 8 3.59 8 8-3.59 8-8 8z"/>
    <circle class="dot" cx="12" cy="12" r="1"/>
    <circle class="dot" cx="8" cy="12" r="1"/>
    <circle class="dot" cx="16" cy="12" r="1"/>
  </g>
</svg> 